<?xml version="1.0" encoding="UTF-8"?>
<!-- Generated by Pixelmator Pro 4.2 -->
<svg width="22" height="21" viewBox="0 0 22 21" xmlns="http://www.w3.org/2000/svg">
    <g id="Group">
        <path id="Path" fill="#ffffff" fill-opacity="0.85" stroke="none" d="M 13.694067 18.102272 C 13.957207 18.102272 14.137122 17.922356 14.16491 17.645464 C 14.621719 13.94865 14.801776 13.851745 18.553925 13.24254 C 18.84457 13.201 19.024628 13.048702 19.024628 12.785633 C 19.024628 12.522578 18.84457 12.356429 18.609221 12.314889 C 14.829424 11.594926 14.621719 11.608764 14.16491 7.912021 C 14.137122 7.635114 13.957207 7.455128 13.694067 7.455128 C 13.44482 7.455128 13.264905 7.635114 13.223363 7.898184 C 12.752663 11.650306 12.614145 11.774914 8.778914 12.314889 C 8.543563 12.342577 8.363647 12.522578 8.363647 12.785633 C 8.363647 13.03485 8.543563 13.201 8.778914 13.24254 C 12.614145 13.976355 12.738769 13.976355 13.223363 17.673111 C 13.264905 17.922356 13.44482 18.102272 13.694067 18.102272 Z M 7.07602 8.728902 C 7.242042 8.728902 7.325124 8.631984 7.352912 8.479686 C 7.782074 6.167486 7.76818 6.11211 10.17741 5.655201 C 10.329678 5.627513 10.440407 5.530594 10.440407 5.364459 C 10.440407 5.198308 10.329678 5.10139 10.17741 5.073701 C 7.76818 4.589104 7.851261 4.533724 7.352912 2.249218 C 7.325124 2.096918 7.242042 2 7.07602 2 C 6.909857 2 6.812881 2.096918 6.785234 2.249218 C 6.300638 4.533724 6.383719 4.589104 3.974631 5.073701 C 3.808468 5.10139 3.711491 5.198308 3.711491 5.364459 C 3.711491 5.530594 3.808468 5.627513 3.974631 5.655201 C 6.383719 6.139798 6.355931 6.167486 6.785234 8.479686 C 6.812881 8.631984 6.909857 8.728902 7.07602 8.728902 Z"/>
    </g>
</svg>
